<svg width="55" height="48" viewBox="0 0 55 48" fill="none" xmlns="http://www.w3.org/2000/svg">
<path d="M48.9734 37.7843V23.808C48.4064 23.9222 47.8197 23.8958 47.2655 23.731C46.7114 23.5663 46.2072 23.2684 45.7981 22.864C45.3889 22.4596 45.0875 21.9613 44.9209 21.4136C44.7542 20.8659 44.7275 20.286 44.843 19.7256H30.7046C30.8202 20.286 30.7934 20.8659 30.6268 21.4136C30.4601 21.9613 30.1587 22.4596 29.7496 22.864C29.3404 23.2684 28.8362 23.5663 28.2821 23.731C27.728 23.8958 27.1412 23.9222 26.5742 23.808V37.7843C27.1412 37.6701 27.728 37.6965 28.2821 37.8613C28.8362 38.026 29.3404 38.3239 29.7496 38.7283C30.1587 39.1327 30.4601 39.631 30.6268 40.1787C30.7934 40.7263 30.8202 41.3063 30.7046 41.8667H44.8454" stroke="#DCDCDC" style="stroke:#DCDCDC;stroke:color(display-p3 0.8621 0.8621 0.8621);stroke-opacity:1;" stroke-width="1.5" stroke-linecap="round" stroke-linejoin="round"/>
<path d="M30.7742 20.4182C30.7503 21.3201 30.3711 22.1771 29.7172 22.8067C29.0634 23.4362 28.1866 23.7885 27.2738 23.7885C26.361 23.7885 25.4843 23.4362 24.8305 22.8067C24.1766 22.1771 23.7973 21.3201 23.7734 20.4182C23.7765 19.5627 24.1002 18.7386 24.6818 18.105C25.2635 17.4714 26.0621 17.0732 26.9233 16.9872C27.7846 16.9013 28.6475 17.1337 29.3456 17.6396C30.0437 18.1455 30.5274 18.8891 30.7034 19.7268C30.7454 19.9474 30.7742 20.1834 30.7742 20.4182Z" stroke="#DCDCDC" style="stroke:#DCDCDC;stroke:color(display-p3 0.8621 0.8621 0.8621);stroke-opacity:1;" stroke-width="1.5" stroke-linecap="round" stroke-linejoin="round"/>
<path d="M51.7742 20.4182C51.7742 21.3358 51.4054 22.2157 50.749 22.8646C50.0925 23.5134 49.2022 23.8779 48.2738 23.8779C47.3455 23.8779 46.4551 23.5134 45.7987 22.8646C45.1422 22.2157 44.7734 21.3358 44.7734 20.4182C44.7734 19.5006 45.1422 18.6206 45.7987 17.9718C46.4551 17.323 47.3455 16.9585 48.2738 16.9585C49.2022 16.9585 50.0925 17.323 50.749 17.9718C51.4054 18.6206 51.7742 19.5006 51.7742 20.4182Z" stroke="#DCDCDC" style="stroke:#DCDCDC;stroke:color(display-p3 0.8621 0.8621 0.8621);stroke-opacity:1;" stroke-width="1.5" stroke-linecap="round" stroke-linejoin="round"/>
<path d="M30.7741 41.174C30.7827 41.6336 30.6986 42.0903 30.5266 42.5175C30.3545 42.9446 30.0981 43.3336 29.7723 43.6616C29.4465 43.9897 29.0577 44.2503 28.6288 44.4282C28.1999 44.6061 27.7395 44.6977 27.2743 44.6977C26.8092 44.6977 26.3487 44.6061 25.9198 44.4282C25.4909 44.2503 25.1022 43.9897 24.7764 43.6616C24.4505 43.3336 24.1941 42.9446 24.0221 42.5175C23.8501 42.0903 23.7659 41.6336 23.7745 41.174C23.7915 40.2676 24.1677 39.4041 24.8222 38.7691C25.4767 38.1341 26.3572 37.7783 27.2743 37.7783C28.1915 37.7783 29.072 38.1341 29.7265 38.7691C30.381 39.4041 30.7571 40.2676 30.7741 41.174Z" stroke="#DCDCDC" style="stroke:#DCDCDC;stroke:color(display-p3 0.8621 0.8621 0.8621);stroke-opacity:1;" stroke-width="1.5" stroke-linecap="round" stroke-linejoin="round"/>
<path d="M32.9834 24.9702H36.545L41.6018 33.1397H41.6354V24.9702H44.2562V36.7263H40.829L35.6378 28.3576H35.6042V36.7263H32.9834V24.9702Z" fill="white" style="fill:white;fill-opacity:1;"/>
<path d="M52.758 46.7329L53.91 45.586C54.3492 45.1496 54.3216 44.5577 53.8608 44.2624L52.8456 43.6255L50.7876 45.6726L51.4284 46.6831C51.702 47.1196 52.3476 47.1421 52.758 46.7329Z" stroke="#DCDCDC" style="stroke:#DCDCDC;stroke:color(display-p3 0.8621 0.8621 0.8621);stroke-opacity:1;" stroke-linecap="round" stroke-linejoin="round"/>
<path d="M52.841 43.6197L52.9286 42.1324C52.979 41.2998 52.7222 41.008 51.9266 40.9179L48.7634 40.5443C48.0998 40.4672 47.6198 40.9452 47.6978 41.6046L48.0722 44.7524C48.1646 45.5447 48.4526 45.8317 49.2938 45.7487L50.789 45.6633" stroke="#DCDCDC" style="stroke:#DCDCDC;stroke:color(display-p3 0.8621 0.8621 0.8621);stroke-opacity:1;" stroke-linecap="round" stroke-linejoin="round"/>
<path d="M48.1318 40.9819L49.2886 42.1324" stroke="#DCDCDC" style="stroke:#DCDCDC;stroke:color(display-p3 0.8621 0.8621 0.8621);stroke-opacity:1;" stroke-linecap="round" stroke-linejoin="round"/>
<path d="M18.5256 2.50535L14.9736 0.75L11.4216 2.50535H18.5256ZM4.302 27.1111L0.75 25.3557V20.9602L4.302 27.1111Z" fill="#DCDCDC" style="fill:#DCDCDC;fill:color(display-p3 0.8621 0.8621 0.8621);fill-opacity:1;"/>
<path d="M29.1972 7.7714L25.6452 9.52675M29.1972 7.7714L25.6452 6.01605M29.1972 7.7714V12.1669M0.75 7.7714L4.302 6.01605M0.75 7.7714L4.302 9.52675M0.75 7.7714V12.1669M14.9736 32.3771L11.4216 30.6218M14.9736 32.3771L18.5256 30.6218M14.9736 32.3771V27.9816M18.5256 2.50535L14.9736 0.75L11.4216 2.50535H18.5256ZM4.302 27.1111L0.75 25.3557V20.9602L2.526 24.0357L4.302 27.1111Z" stroke="#DCDCDC" style="stroke:#DCDCDC;stroke:color(display-p3 0.8621 0.8621 0.8621);stroke-opacity:1;" stroke-width="1.5" stroke-linecap="round" stroke-linejoin="round"/>
<path d="M11.4839 9.55176H14.1047V18.9168H18.9599V21.3079H11.4839V9.55176Z" fill="white" style="fill:white;fill-opacity:1;"/>
</svg>
