<svg width="52" height="52" viewBox="0 0 52 52" fill="none" xmlns="http://www.w3.org/2000/svg">
<rect width="52" height="52" rx="26" fill="#D6D6D6" fill-opacity="0.45" style="fill:#D6D6D6;fill:color(display-p3 0.8392 0.8392 0.8392);fill-opacity:0.45;" style="mix-blend-mode:color-burn"/>
<rect width="52" height="52" rx="26" fill="black" fill-opacity="0.08" style="fill:black;fill-opacity:0.08;" style="mix-blend-mode:luminosity"/>
<path d="M31.3332 10C26.5358 10 22.2425 12.1227 19.3118 15.4667C18.8745 15.4213 18.4478 15.3333 17.9998 15.3333C10.6372 15.3333 4.6665 21.304 4.6665 28.6667C4.6665 36.0293 10.6372 42 17.9998 42H31.3332C40.1705 42 47.3332 34.8373 47.3332 26C47.3332 17.1627 40.1705 10 31.3332 10Z" fill="#F44336" style="fill:#F44336;fill:color(display-p3 0.9569 0.2627 0.2118);fill-opacity:1;"/>
<path d="M31.3331 12.667C27.9464 12.667 24.8157 13.923 22.4131 16.115C23.2504 16.379 24.0957 16.763 24.9384 17.283C24.9811 17.307 25.0237 17.3337 25.0664 17.3603L25.0744 17.3657C26.8557 16.0643 29.0211 15.3337 31.3331 15.3337C37.2157 15.3337 41.9997 20.1177 41.9997 26.0003C41.9997 31.883 37.2157 36.667 31.3331 36.667C29.0291 36.667 26.8317 35.939 24.9757 34.555C24.2237 34.0003 23.6104 33.4163 23.0984 32.771C23.0695 32.7336 23.0383 32.6979 23.0051 32.6643L19.0317 27.8217C18.5624 27.251 17.7224 27.1657 17.1544 27.635C16.5837 28.1017 16.5011 28.9417 16.9677 29.5123L21.0184 34.451C21.0397 34.4777 21.0637 34.5043 21.0877 34.5283C21.7331 35.323 22.4877 36.0323 23.3891 36.6963C25.7011 38.4217 28.4477 39.3337 31.3331 39.3337C38.6851 39.3337 44.6664 33.3523 44.6664 26.0003C44.6664 18.6483 38.6851 12.667 31.3331 12.667Z" fill="#FAFAFA" style="fill:#FAFAFA;fill:color(display-p3 0.9804 0.9804 0.9804);fill-opacity:1;"/>
<path d="M19.3308 36.5467C18.8962 36.6187 18.4508 36.6667 18.0002 36.6667C13.5895 36.6667 10.0002 33.0773 10.0002 28.6667C10.0002 23.3733 15.1122 19.1653 20.6828 21.152C21.1575 21.2853 21.6748 21.528 22.2215 21.8747C22.2455 21.8907 22.2722 21.904 22.2988 21.92L30.6268 27.1333C31.2535 27.5227 32.0748 27.3333 32.4642 26.7067C32.8535 26.0827 32.6642 25.2613 32.0428 24.8693L23.6535 19.6187C23.6322 19.6053 23.6082 19.592 23.5842 19.5787C22.8402 19.1147 22.1095 18.7813 21.4935 18.6133C20.3738 18.2067 19.1915 17.9991 18.0002 18C12.1175 18 7.3335 22.784 7.3335 28.6667C7.3335 34.5493 12.1175 39.3333 18.0002 39.3333C19.2562 39.3333 20.4748 39.1013 21.6215 38.688C20.7575 38.0347 20.0055 37.3227 19.3308 36.5467Z" fill="#FAFAFA" style="fill:#FAFAFA;fill:color(display-p3 0.9804 0.9804 0.9804);fill-opacity:1;"/>
</svg>
